<?xml version="1.0" standalone="no"?>
<!DOCTYPE svg PUBLIC "-//W3C//DTD SVG 20010904//EN"
 "http://www.w3.org/TR/2001/REC-SVG-20010904/DTD/svg10.dtd">
<svg version="1.0" xmlns="http://www.w3.org/2000/svg"
 width="512.000000pt" height="512.000000pt" viewBox="0 0 512.000000 512.000000"
 preserveAspectRatio="xMidYMid meet">
<metadata>
Created by potrace 1.14, written by Peter Selinger 2001-2017
</metadata>
<g transform="translate(0.000000,512.000000) scale(0.100000,-0.100000)"
fill="#000000" stroke="none">
<path d="M0 2560 l0 -2560 2560 0 2560 0 0 2560 0 2560 -2560 0 -2560 0 0
-2560z m1215 -1353 c3 -12 5 -58 3 -102 l-3 -80 -212 -3 -213 -2 0 -35 0 -35
178 -2 177 -3 0 -100 0 -100 -177 -3 -178 -2 0 -103 c0 -67 -4 -107 -12 -115
-17 -17 -239 -17 -256 0 -17 17 -17 679 0 696 9 9 100 12 350 12 l338 0 5 -23z
m672 15 c17 -11 246 -681 239 -698 -4 -11 -31 -14 -113 -14 -59 0 -114 4 -122
9 -8 5 -22 29 -32 53 l-17 43 -125 3 -125 3 -17 -50 c-9 -27 -23 -52 -31 -55
-31 -12 -221 -6 -231 7 -7 8 26 115 106 347 64 185 120 341 124 348 9 14 323
17 344 4z m565 -4 c8 -7 53 -65 98 -128 46 -63 94 -131 109 -150 l26 -35 5
160 5 160 115 0 115 0 0 -355 0 -355 -102 -3 -101 -3 -36 43 c-19 24 -74 92
-121 152 l-85 109 0 -140 c0 -95 -4 -143 -12 -151 -16 -16 -210 -16 -226 0 -9
9 -12 101 -12 353 0 188 3 345 7 348 12 13 198 8 215 -5z m870 0 c8 -7 53 -65
98 -128 46 -63 94 -131 109 -150 l26 -35 5 160 5 160 115 0 115 0 0 -355 0
-355 -102 -3 -101 -3 -36 43 c-19 24 -74 92 -121 152 l-85 109 0 -140 c0 -95
-4 -143 -12 -151 -16 -16 -210 -16 -226 0 -9 9 -12 101 -12 353 0 188 3 345 7
348 12 13 198 8 215 -5z m892 -25 c13 -21 43 -71 66 -111 23 -41 44 -71 47
-68 3 3 34 52 67 108 l62 103 127 3 c108 2 128 0 133 -13 4 -9 -43 -97 -122
-228 l-129 -212 -5 -130 -5 -130 -130 0 -130 0 -3 124 -3 124 -131 218 c-79
132 -128 224 -125 234 5 12 28 15 132 15 l125 0 24 -37z"/>
<path d="M1682 927 c-18 -51 -32 -95 -32 -99 0 -5 31 -8 69 -8 l70 0 -31 93
c-17 50 -33 95 -37 99 -3 4 -21 -34 -39 -85z"/>
</g>
</svg>
